<svg xmlns="http://www.w3.org/2000/svg" width="45" height="45" fill="none"><path fill="#3996F7" d="M8.06.123c-.537.193-.853.501-1.143 1.107-.158.343-.185.598-.22 1.82l-.035 1.432H4.184c-2.198 0-2.505.018-2.822.167-.536.247-.923.616-1.151 1.108L0 6.197v32.607l.21.44c.23.491.616.86 1.152 1.107.334.149.774.167 7.497.167 3.92 0 7.137-.027 7.137-.062 0-.026-.132-.299-.299-.589-1.564-2.812-2.382-6.715-2.083-9.896.413-4.272 2.215-8.095 5.238-11.119 1.503-1.511 3.209-2.715 5.02-3.559 6.081-2.839 12.7-2.17 18.236 1.855.326.237.616.43.642.43.035 0 .044-2.557.035-5.695l-.026-5.687-.194-.369a2.877 2.877 0 0 0-1.221-1.16c-.334-.158-.554-.185-1.697-.185h-1.31l-.034-1.432c-.027-1.196-.062-1.486-.22-1.82-.202-.439-.554-.826-.95-1.037-.35-.175-1.476-.237-1.977-.105-.51.14-1.169.782-1.31 1.274-.052.194-.096.976-.096 1.732v1.388h-22.5V3.094c0-.756-.044-1.538-.097-1.732-.132-.466-.8-1.133-1.265-1.265-.475-.132-1.424-.115-1.828.026Z"/><path fill="#7FAEE5" d="M30.366 18.026c-3.155.247-6.178 1.653-8.437 3.938-4.421 4.447-5.23 11.259-1.96 16.602 1.81 2.962 4.807 5.186 8.156 6.038 2.004.51 4.71.528 6.61.044a13.698 13.698 0 0 0 9.913-9.914c.484-1.898.466-4.605-.044-6.609-1.318-5.168-5.739-9.193-10.942-9.967a13.992 13.992 0 0 0-3.296-.132Zm2.197 4.755c.334.176.721.563.88.87.228.431.307 1.345.307 3.48v2.137h1.143c1.898 0 2.584.272 3.04 1.186.642 1.319-.043 2.9-1.362 3.182-.413.088-5.23.088-5.642 0-.563-.114-1.099-.545-1.371-1.099l-.247-.5v-3.912c0-3.84 0-3.92.194-4.324a2.057 2.057 0 0 1 1.037-1.055c.43-.202 1.6-.184 2.021.035Z"/></svg>