<svg xmlns="http://www.w3.org/2000/svg" width="45" height="46" fill="none"><path fill="#7FAEE6" d="M12.041.632c-.404.184-.598.369-.817.79-.264.493-.255 1.68 0 2.594 1.01 3.55 4.948 9.017 9.299 12.91 4.306 3.86 8.604 6.355 11.18 6.496.746.035.843.026 1.3-.194.37-.184.536-.334.73-.65.21-.37.237-.5.237-1.204-.009-1.204-.501-2.593-1.538-4.298-.528-.879-.791-1.037-1.31-.782-.22.114-.334.246-.395.44-.07.254-.027.368.369 1.054.905 1.59 1.318 2.61 1.397 3.454.062.607-.079.756-.677.73-1.353-.062-4.315-1.53-6.943-3.437-2.865-2.092-6.108-5.247-8.35-8.147-1.01-1.301-2.276-3.305-2.944-4.641-.747-1.53-1.002-2.25-1.072-3.015-.044-.51-.035-.553.176-.694.22-.14.28-.14.887-.018.809.167 1.864.616 2.927 1.248.914.554 1.23.607 1.564.264.238-.228.282-.527.124-.861-.159-.352-2.083-1.433-3.375-1.881-.8-.29-2.294-.37-2.769-.158Z"/><path fill="#7FAEE6" d="M20.259 4.824c-.624.114-1.609.413-1.67.501-.026.044 1.52 1.617 3.428 3.49 1.924 1.88 3.498 3.497 3.524 3.612.114.43-.413.87-.844.712-.123-.044-1.107-.958-2.197-2.03-5.607-5.538-5.16-5.116-5.388-5.01-.114.052-.457.298-.756.553l-.545.457.15.229c2.373 3.735 6.205 7.708 9.95 10.327 1.467 1.037 1.933 1.318 2.073 1.266.211-.088 1.02-1.24 1.415-2.04.66-1.344.791-1.942.791-3.735 0-1.345-.026-1.626-.202-2.232-.738-2.558-2.505-4.562-4.913-5.581-.668-.29-1.714-.563-1.942-.519-.088.018.307.457 1.107 1.204.677.65 1.257 1.275 1.292 1.389.114.466-.422.958-.835.765-.088-.044-.958-.844-1.916-1.776-1.072-1.028-1.82-1.687-1.925-1.679a6.475 6.475 0 0 0-.597.097Zm7.488 4.658c.712.695.87.967.73 1.301-.097.237-.405.44-.677.44-.07 0-.448-.308-.826-.677-.59-.571-.695-.712-.695-.967 0-.37.264-.642.624-.642.211 0 .396.115.844.545Zm.088 5.107c.782.782.844.94.545 1.327-.132.167-.255.229-.492.229-.282 0-.405-.08-.967-.642-.563-.563-.642-.686-.642-.967 0-.237.062-.36.229-.492.387-.299.545-.237 1.327.545ZM13.447 11.724c-.07.325-.096.966-.061 1.784.035 1.037.079 1.415.272 2.048.448 1.494 1.17 2.671 2.285 3.735 1.556 1.476 3.235 2.197 5.362 2.276 1.107.053 2.636-.088 2.584-.237-.018-.035-.58-.483-1.257-.993-3.13-2.364-5.906-5.107-8.218-8.13-.413-.536-.773-.976-.809-.976-.035-.008-.105.22-.158.493Z"/><path fill="#3996F7" d="m7.603 16.162-1.407.888-1.652-.545c-.914-.308-1.679-.527-1.705-.501-.035.026.176.773.457 1.652.281.888.51 1.653.51 1.705 0 .053-.378.712-.844 1.46-.475.755-.853 1.388-.853 1.423 0 .026.783.053 1.74.053l1.732.009 1.046 1.397c.571.774 1.063 1.406 1.099 1.406.035 0 .237-.685.448-1.52.21-.826.413-1.573.448-1.644.044-.088.66-.29 1.696-.562.897-.238 1.635-.457 1.635-.501 0-.035-.633-.527-1.406-1.099l-1.398-1.046-.008-1.74c0-.95-.027-1.731-.062-1.731-.044 0-.703.404-1.476.896ZM37.266 21.207l-.01 1.75-1.397 1.045c-.773.571-1.406 1.063-1.406 1.099 0 .044.738.263 1.635.5 1.037.273 1.652.475 1.696.563.035.07.238.817.448 1.644.211.835.413 1.52.449 1.52.035 0 .527-.633 1.098-1.406l1.046-1.398 1.75-.008c1.353 0 1.73-.027 1.695-.115-.017-.052-.413-.712-.878-1.45l-.835-1.345.474-1.467c.536-1.662.616-1.951.51-1.951-.044 0-.809.246-1.705.536l-1.626.545-1.362-.862c-.747-.474-1.415-.879-1.468-.896-.088-.035-.114.343-.114 1.696ZM18.457 23.879c-.352.351-.264.624 1.31 3.77.826 1.635 1.555 2.997 1.634 3.033.3.114.747.052.923-.123.352-.352.264-.625-1.31-3.77-.825-1.636-1.555-2.998-1.634-3.033-.299-.114-.747-.053-.923.123ZM11.426 24.582c-.229.229-.238.817-.009 1.046.097.097.404.202.756.264 2.092.369 4.245 2.118 5.941 4.842.255.413.747 1.345 1.108 2.075.351.738.703 1.353.782 1.388.29.114.738.053.914-.123.29-.29.229-.73-.299-1.863-1.6-3.472-3.814-6.003-6.31-7.19-1.292-.615-2.523-.8-2.883-.439ZM24.89 24.468c-.06.026-.465.747-.896 1.617-.844 1.687-.94 2.039-.615 2.364.176.176.624.237.923.123.22-.088 1.714-3.137 1.714-3.507 0-.422-.255-.659-.677-.65-.185 0-.387.026-.448.053ZM31.948 26.612c-2.232.37-4.333 1.538-6.073 3.349-1.31 1.38-2.672 3.56-2.672 4.289 0 .448.237.703.65.703.484 0 .572-.07.932-.782.782-1.565 2.197-3.322 3.428-4.272 1.564-1.195 2.962-1.705 5.388-1.942.641-.062.852-.246.852-.738 0-.598-.193-.703-1.204-.695-.475.01-1.055.044-1.3.088Z"/><path fill="#3996F7" d="m2.127 32.852.026 1.442 1.257.062c4.992.237 10.248 1.581 13.377 3.427 1.556.914 2.9 2.022 2.9 2.373 0 .308.334.923.66 1.204.492.431 1.151.624 2.153.624s1.661-.193 2.153-.624c.326-.28.66-.896.66-1.204 0-.36 1.564-1.617 3.067-2.47 3.243-1.819 8.323-3.102 13.192-3.33l1.275-.062.026-1.433.018-1.423h-.985c-2.522 0-5.774.527-8.314 1.335-4.087 1.301-7.488 3.314-10.187 6.03l-.905.905-.914-.914c-4.386-4.412-10.951-7.102-17.921-7.33l-1.564-.053.026 1.441Z"/><path fill="#3996F7" d="M0 37.062v1.398l.29.044c.15.026.993.061 1.863.088 4.254.123 8.157.993 11.25 2.505 1.907.94 2.646 1.52 4.448 3.498.22.246.57.536.79.65.387.211.414.211 3.657.237 2.057.018 3.401-.008 3.612-.061.51-.14 1.09-.571 1.538-1.134 1.81-2.312 4.984-3.99 9.378-4.975 1.978-.439 4.799-.755 6.75-.755 1.565 0 1.424.14 1.424-1.503v-1.398h-1.327c-5.44 0-11.057 1.134-14.766 2.989-1.714.852-3.542 2.214-3.647 2.706-.194.932-.712 1.539-1.538 1.802-.598.194-1.846.194-2.444 0-.826-.263-1.344-.87-1.538-1.801-.061-.29-1.02-1.134-2.03-1.793-.844-.545-2.33-1.301-3.428-1.732-3.392-1.327-8.42-2.17-12.937-2.17H0v1.405Z"/></svg>