<svg xmlns="http://www.w3.org/2000/svg" width="45" height="38" fill="none"><path fill="#3996F7" d="M1.661.947c-.536.158-1.195.756-1.45 1.31L0 2.697V31.875l.21.44c.256.562.678.984 1.24 1.239l.44.21H29.97v-5.009l-.317-.413c-1.107-1.45-1.634-3.639-1.318-5.476.43-2.443 1.925-4.386 4.201-5.44 1.01-.475 1.916-.66 3.103-.65 3.832.034 6.943 3.04 7.136 6.881.088 1.697-.307 3.103-1.265 4.509l-.466.685v4.913h1.037c.896 0 1.09-.026 1.468-.21.246-.106.58-.334.738-.501.167-.159.396-.492.501-.739l.211-.439V12.329l-4.5-.026c-4.438-.027-4.518-.035-5.001-.229-.58-.228-1.151-.694-1.459-1.195-.448-.703-.466-.905-.466-5.66V.807l-15.75.008C4.5.815 2.004.842 1.661.947Zm28.485 9v1.319H5.537V8.629h24.61v1.318Zm-3.779 9.14v.704H5.537v-1.406h20.83v.703Zm-8.613 4.615v.66H5.537v-1.319H17.754v.66Z"/><path fill="#7FAEE5" d="M34.98 5.219c0 2.944.036 4.535.097 4.702.114.308.396.615.738.8.238.132.774.15 4.729.175 2.452.018 4.456-.008 4.456-.043 0-.036-2.25-2.33-5.01-5.08L34.98.762v4.456ZM34.365 18.253c-2.127.466-3.797 1.951-4.456 3.946-.193.598-.237.88-.237 1.723-.009 1.186.105 1.714.571 2.698.976 2.048 2.927 3.278 5.203 3.296 1.099 0 1.705-.132 2.699-.606 1.467-.704 2.583-2.04 3.05-3.665.237-.81.272-2.171.078-2.954-.641-2.619-2.83-4.42-5.502-4.535-.536-.017-1.045.009-1.406.097ZM31.377 33.634c0 1.96.026 3.56.07 3.56.035 0 .967-.361 2.075-.8l2.003-.809 1.908.756c1.045.422 1.968.782 2.056.817.14.053.15-.15.15-3.507v-3.568l-.721.387c-1.072.562-1.784.756-2.98.808-1.538.07-2.75-.202-3.999-.896l-.562-.317v3.569Z"/></svg>